<svg width="32" height="32" viewBox="0 0 32 32" fill="none" xmlns="http://www.w3.org/2000/svg">
<path d="M14.12 17.88C14.6667 18.4 14.6667 19.2533 14.12 19.7733C13.6 20.2933 12.7467 20.2933 12.2267 19.7733C10.9778 18.5226 10.2764 16.8274 10.2764 15.06C10.2764 13.2926 10.9778 11.5974 12.2267 10.3467L16.9467 5.62666C18.1974 4.37783 19.8926 3.67641 21.66 3.67641C23.4274 3.67641 25.1226 4.37783 26.3733 5.62666C27.6222 6.87737 28.3236 8.57256 28.3236 10.34C28.3236 12.1074 27.6222 13.8026 26.3733 15.0533L24.3867 17.04C24.4 15.9467 24.2267 14.8533 23.8533 13.8133L24.48 13.1733C24.8538 12.8036 25.1505 12.3634 25.3531 11.8782C25.5556 11.393 25.6598 10.8724 25.6598 10.3467C25.6598 9.8209 25.5556 9.30035 25.3531 8.81516C25.1505 8.32996 24.8538 7.88975 24.48 7.52C24.1103 7.14621 23.67 6.84947 23.1849 6.64696C22.6997 6.44444 22.1791 6.34016 21.6533 6.34016C21.1276 6.34016 20.607 6.44444 20.1218 6.64696C19.6366 6.84947 19.1964 7.14621 18.8267 7.52L14.12 12.2267C13.7462 12.5964 13.4495 13.0366 13.247 13.5218C13.0445 14.007 12.9402 14.5276 12.9402 15.0533C12.9402 15.5791 13.0445 16.0996 13.247 16.5848C13.4495 17.07 13.7462 17.5102 14.12 17.88ZM17.88 12.2267C18.4 11.7067 19.2533 11.7067 19.7733 12.2267C21.0222 13.4774 21.7236 15.1726 21.7236 16.94C21.7236 18.7074 21.0222 20.4026 19.7733 21.6533L15.0533 26.3733C13.8026 27.6222 12.1074 28.3236 10.34 28.3236C8.57257 28.3236 6.87738 27.6222 5.62668 26.3733C4.37785 25.1226 3.67642 23.4274 3.67642 21.66C3.67642 19.8926 4.37785 18.1974 5.62668 16.9467L7.61334 14.96C7.60001 16.0533 7.77334 17.1467 8.14668 18.2L7.52001 18.8267C7.14623 19.1964 6.84949 19.6366 6.64697 20.1218C6.44445 20.607 6.34017 21.1276 6.34017 21.6533C6.34017 22.1791 6.44445 22.6996 6.64697 23.1848C6.84949 23.67 7.14623 24.1102 7.52001 24.48C7.88976 24.8538 8.32997 25.1505 8.81517 25.353C9.30037 25.5556 9.82091 25.6598 10.3467 25.6598C10.8724 25.6598 11.393 25.5556 11.8782 25.353C12.3634 25.1505 12.8036 24.8538 13.1733 24.48L17.88 19.7733C18.2538 19.4036 18.5505 18.9634 18.7531 18.4782C18.9556 17.993 19.0598 17.4724 19.0598 16.9467C19.0598 16.4209 18.9556 15.9004 18.7531 15.4152C18.5505 14.93 18.2538 14.4897 17.88 14.12C17.7505 13.9987 17.6473 13.852 17.5767 13.6892C17.5062 13.5264 17.4697 13.3508 17.4697 13.1733C17.4697 12.9959 17.5062 12.8203 17.5767 12.6575C17.6473 12.4946 17.7505 12.348 17.88 12.2267Z" fill="url(#paint0_linear_19_11)"/>
<defs>
<linearGradient id="paint0_linear_19_11" x1="4" y1="4" x2="28" y2="28" gradientUnits="userSpaceOnUse">
<stop stop-color="#FF6C6C"/>
<stop offset="1" stop-color="#8C8AFF"/>
</linearGradient>
</defs>
</svg>
