<svg width="32" height="32" viewBox="0 0 32 32" fill="none" xmlns="http://www.w3.org/2000/svg">
<path d="M16 16C16.7333 16 17.3613 15.7387 17.884 15.216C18.4058 14.6942 18.6666 14.0667 18.6666 13.3333C18.6666 12.6 18.4058 11.972 17.884 11.4493C17.3613 10.9276 16.7333 10.6667 16 10.6667C15.2666 10.6667 14.6391 10.9276 14.1173 11.4493C13.5946 11.972 13.3333 12.6 13.3333 13.3333C13.3333 14.0667 13.5946 14.6942 14.1173 15.216C14.6391 15.7387 15.2666 16 16 16ZM16 28.8333C15.8222 28.8333 15.6444 28.8 15.4666 28.7333C15.2889 28.6667 15.1333 28.5778 15 28.4667C11.7555 25.6 9.33331 22.9391 7.73331 20.484C6.13331 18.028 5.33331 15.7333 5.33331 13.6C5.33331 10.2667 6.40576 7.61111 8.55065 5.63333C10.6946 3.65556 13.1778 2.66667 16 2.66667C18.8222 2.66667 21.3053 3.65556 23.4493 5.63333C25.5942 7.61111 26.6666 10.2667 26.6666 13.6C26.6666 15.7333 25.8666 18.028 24.2666 20.484C22.6666 22.9391 20.2444 25.6 17 28.4667C16.8666 28.5778 16.7111 28.6667 16.5333 28.7333C16.3555 28.8 16.1778 28.8333 16 28.8333Z" fill="url(#paint0_linear_30_91)"/>
<defs>
<linearGradient id="paint0_linear_30_91" x1="5.29251" y1="2.28187" x2="32.9622" y2="17.34" gradientUnits="userSpaceOnUse">
<stop stop-color="#FF6C6C"/>
<stop offset="1" stop-color="#8C8AFF"/>
</linearGradient>
</defs>
</svg>
