<svg width="32" height="32" viewBox="0 0 32 32" fill="none" xmlns="http://www.w3.org/2000/svg">
<path d="M24.9733 7.21333L23.2667 8.54667L16 13.9467L8.73333 8.49333L7.02666 7.16C6.6246 6.82739 6.1338 6.62005 5.61505 6.56367C5.0963 6.50728 4.57241 6.60433 4.10827 6.84278C3.64414 7.08123 3.26017 7.45062 3.00392 7.90517C2.74767 8.35972 2.63041 8.87946 2.66666 9.4V24.8533C2.66666 25.3343 2.85771 25.7955 3.19778 26.1356C3.53784 26.4756 3.99907 26.6667 4.48 26.6667H8.73333V16.3733L16 21.8267L23.2667 16.3733V26.6667H27.52C28.0009 26.6667 28.4622 26.4756 28.8022 26.1356C29.1423 25.7955 29.3333 25.3343 29.3333 24.8533V9.4C29.3584 8.88395 29.233 8.37174 28.9723 7.92563C28.7117 7.47952 28.3271 7.11873 27.8653 6.88711C27.4035 6.65549 26.8843 6.56301 26.3709 6.62093C25.8575 6.67884 25.372 6.88465 24.9733 7.21333Z" fill="url(#paint0_linear_19_17)"/>
<defs>
<linearGradient id="paint0_linear_19_17" x1="3" y1="7" x2="29" y2="27" gradientUnits="userSpaceOnUse">
<stop stop-color="#FF6C6C"/>
<stop offset="1" stop-color="#8C8AFF"/>
</linearGradient>
</defs>
</svg>
