<svg width="32" height="32" viewBox="0 0 32 32" fill="none" xmlns="http://www.w3.org/2000/svg">
<path d="M9 2.66666C8.20435 2.66666 7.44129 2.98273 6.87868 3.54534C6.31607 4.10795 6 4.87101 6 5.66666V27.6667C6 28.2187 6.448 28.6667 7 28.6667H10V23C10 22.7348 10.1054 22.4804 10.2929 22.2929C10.4804 22.1054 10.7348 22 11 22H21C21.2652 22 21.5196 22.1054 21.7071 22.2929C21.8946 22.4804 22 22.7348 22 23V28.6667H25C25.2652 28.6667 25.5196 28.5613 25.7071 28.3738C25.8946 28.1862 26 27.9319 26 27.6667V15.6667C26 14.871 25.6839 14.108 25.1213 13.5453C24.5587 12.9827 23.7957 12.6667 23 12.6667H22V5.66666C22 4.87101 21.6839 4.10795 21.1213 3.54534C20.5587 2.98273 19.7956 2.66666 19 2.66666H9ZM10 8.66666C10 8.31304 10.1405 7.9739 10.3905 7.72386C10.6406 7.47381 10.9797 7.33333 11.3333 7.33333C11.687 7.33333 12.0261 7.47381 12.2761 7.72386C12.5262 7.9739 12.6667 8.31304 12.6667 8.66666C12.6667 9.02029 12.5262 9.35942 12.2761 9.60947C12.0261 9.85952 11.687 10 11.3333 10C10.9797 10 10.6406 9.85952 10.3905 9.60947C10.1405 9.35942 10 9.02029 10 8.66666ZM11.3333 16.6667C11.687 16.6667 12.0261 16.8071 12.2761 17.0572C12.5262 17.3072 12.6667 17.6464 12.6667 18C12.6667 18.3536 12.5262 18.6928 12.2761 18.9428C12.0261 19.1929 11.687 19.3333 11.3333 19.3333C10.9797 19.3333 10.6406 19.1929 10.3905 18.9428C10.1405 18.6928 10 18.3536 10 18C10 17.6464 10.1405 17.3072 10.3905 17.0572C10.6406 16.8071 10.9797 16.6667 11.3333 16.6667ZM10 13.3333C10 12.9797 10.1405 12.6406 10.3905 12.3905C10.6406 12.1405 10.9797 12 11.3333 12C11.687 12 12.0261 12.1405 12.2761 12.3905C12.5262 12.6406 12.6667 12.9797 12.6667 13.3333C12.6667 13.687 12.5262 14.0261 12.2761 14.2761C12.0261 14.5262 11.687 14.6667 11.3333 14.6667C10.9797 14.6667 10.6406 14.5262 10.3905 14.2761C10.1405 14.0261 10 13.687 10 13.3333ZM16 7.33333C16.3536 7.33333 16.6928 7.47381 16.9428 7.72386C17.1929 7.9739 17.3333 8.31304 17.3333 8.66666C17.3333 9.02029 17.1929 9.35942 16.9428 9.60947C16.6928 9.85952 16.3536 10 16 10C15.6464 10 15.3072 9.85952 15.0572 9.60947C14.8071 9.35942 14.6667 9.02029 14.6667 8.66666C14.6667 8.31304 14.8071 7.9739 15.0572 7.72386C15.3072 7.47381 15.6464 7.33333 16 7.33333ZM14.6667 18C14.6667 17.6464 14.8071 17.3072 15.0572 17.0572C15.3072 16.8071 15.6464 16.6667 16 16.6667C16.3536 16.6667 16.6928 16.8071 16.9428 17.0572C17.1929 17.3072 17.3333 17.6464 17.3333 18C17.3333 18.3536 17.1929 18.6928 16.9428 18.9428C16.6928 19.1929 16.3536 19.3333 16 19.3333C15.6464 19.3333 15.3072 19.1929 15.0572 18.9428C14.8071 18.6928 14.6667 18.3536 14.6667 18ZM20.6667 16.6667C21.0203 16.6667 21.3594 16.8071 21.6095 17.0572C21.8595 17.3072 22 17.6464 22 18C22 18.3536 21.8595 18.6928 21.6095 18.9428C21.3594 19.1929 21.0203 19.3333 20.6667 19.3333C20.313 19.3333 19.9739 19.1929 19.7239 18.9428C19.4738 18.6928 19.3333 18.3536 19.3333 18C19.3333 17.6464 19.4738 17.3072 19.7239 17.0572C19.9739 16.8071 20.313 16.6667 20.6667 16.6667ZM14.6667 13.3333C14.6667 12.9797 14.8071 12.6406 15.0572 12.3905C15.3072 12.1405 15.6464 12 16 12C16.3536 12 16.6928 12.1405 16.9428 12.3905C17.1929 12.6406 17.3333 12.9797 17.3333 13.3333C17.3333 13.687 17.1929 14.0261 16.9428 14.2761C16.6928 14.5262 16.3536 14.6667 16 14.6667C15.6464 14.6667 15.3072 14.5262 15.0572 14.2761C14.8071 14.0261 14.6667 13.687 14.6667 13.3333ZM20 28.6667V24H17V28.6667H20ZM15 28.6667V24H12V28.6667H15Z" fill="url(#paint0_linear_30_94)"/>
<defs>
<linearGradient id="paint0_linear_30_94" x1="5.96175" y1="2.28432" x2="32.5696" y2="15.9466" gradientUnits="userSpaceOnUse">
<stop stop-color="#FF6C6C"/>
<stop offset="1" stop-color="#8C8AFF"/>
</linearGradient>
</defs>
</svg>
