<svg width="32" height="32" viewBox="0 0 32 32" fill="none" xmlns="http://www.w3.org/2000/svg">
<path fill-rule="evenodd" clip-rule="evenodd" d="M14 2.66666C12.1928 2.66681 10.4118 3.09914 8.80568 3.92758C7.19953 4.75602 5.81479 5.95655 4.76698 7.42899C3.71917 8.90144 3.03868 10.6031 2.78228 12.392C2.52588 14.181 2.701 16.0053 3.29304 17.7128C3.88508 19.4203 4.87686 20.9614 6.18565 22.2076C7.49444 23.4539 9.08228 24.369 10.8167 24.8768C12.5511 25.3846 14.3818 25.4702 16.156 25.1265C17.9303 24.7829 19.5966 24.0199 21.016 22.9013L25.8853 27.7707C26.1368 28.0135 26.4736 28.1479 26.8232 28.1449C27.1728 28.1418 27.5072 28.0016 27.7544 27.7544C28.0016 27.5072 28.1419 27.1728 28.1449 26.8232C28.1479 26.4736 28.0135 26.1368 27.7707 25.8853L22.9013 21.016C24.2187 19.3448 25.0389 17.3365 25.2681 15.221C25.4974 13.1054 25.1264 10.968 24.1976 9.05345C23.2689 7.13888 21.8198 5.52446 20.0164 4.39496C18.213 3.26547 16.128 2.66651 14 2.66666ZM5.33334 14C5.33334 11.7014 6.24643 9.49705 7.87174 7.87173C9.49706 6.24642 11.7015 5.33332 14 5.33332C16.2985 5.33332 18.5029 6.24642 20.1283 7.87173C21.7536 9.49705 22.6667 11.7014 22.6667 14C22.6667 16.2985 21.7536 18.5029 20.1283 20.1283C18.5029 21.7536 16.2985 22.6667 14 22.6667C11.7015 22.6667 9.49706 21.7536 7.87174 20.1283C6.24643 18.5029 5.33334 16.2985 5.33334 14Z" fill="url(#paint0_linear_6_21)"/>
<defs>
<linearGradient id="paint0_linear_6_21" x1="15.4063" y1="2.66666" x2="15.4063" y2="28.1449" gradientUnits="userSpaceOnUse">
<stop stop-color="#FF6C6C"/>
<stop offset="1" stop-color="#8C8AFF"/>
</linearGradient>
</defs>
</svg>
