<svg width="32" height="32" viewBox="0 0 32 32" fill="none" xmlns="http://www.w3.org/2000/svg">
<path d="M29.9467 7.99999C28.92 8.46666 27.8133 8.77333 26.6667 8.92C27.84 8.21333 28.7467 7.09333 29.1733 5.74666C28.0667 6.41333 26.84 6.88 25.5467 7.14666C24.4933 6 23.0133 5.33333 21.3333 5.33333C18.2 5.33333 15.64 7.89333 15.64 11.0533C15.64 11.5067 15.6933 11.9467 15.7867 12.36C11.04 12.12 6.81334 9.83999 4.00001 6.38666C3.50668 7.22666 3.22668 8.21333 3.22668 9.25333C3.22668 11.24 4.22668 13 5.77334 14C4.82668 14 3.94668 13.7333 3.17334 13.3333V13.3733C3.17334 16.1467 5.14668 18.4667 7.76001 18.9867C6.92098 19.2163 6.04014 19.2482 5.18668 19.08C5.54882 20.2166 6.25806 21.2112 7.2147 21.9239C8.17134 22.6366 9.32727 23.0316 10.52 23.0533C8.49818 24.6539 5.99201 25.5191 3.41334 25.5067C2.96001 25.5067 2.50668 25.48 2.05334 25.4267C4.58668 27.0533 7.60001 28 10.8267 28C21.3333 28 27.1067 19.28 27.1067 11.72C27.1067 11.4667 27.1067 11.2267 27.0933 10.9733C28.2133 10.1733 29.1733 9.16 29.9467 7.99999Z" fill="url(#paint0_linear_19_8)"/>
<defs>
<linearGradient id="paint0_linear_19_8" x1="2" y1="5" x2="30" y2="28" gradientUnits="userSpaceOnUse">
<stop stop-color="#FF6C6C"/>
<stop offset="1" stop-color="#8C8AFF"/>
</linearGradient>
</defs>
</svg>
