<svg width="32" height="32" viewBox="0 0 32 32" fill="none" xmlns="http://www.w3.org/2000/svg">
<path d="M16 22.6667C14.1555 22.6667 12.5835 22.0165 11.284 20.716C9.98354 19.4165 9.33331 17.8445 9.33331 16C9.33331 14.1556 9.98354 12.5831 11.284 11.2827C12.5835 9.98312 14.1555 9.33334 16 9.33334C17.8444 9.33334 19.4169 9.98312 20.7173 11.2827C22.0169 12.5831 22.6666 14.1556 22.6666 16C22.6666 17.8445 22.0169 19.4165 20.7173 20.716C19.4169 22.0165 17.8444 22.6667 16 22.6667ZM2.66665 17.3333C2.28887 17.3333 1.97242 17.2053 1.71731 16.9493C1.46131 16.6942 1.33331 16.3778 1.33331 16C1.33331 15.6222 1.46131 15.3053 1.71731 15.0493C1.97242 14.7942 2.28887 14.6667 2.66665 14.6667H5.33331C5.71109 14.6667 6.02798 14.7942 6.28398 15.0493C6.53909 15.3053 6.66665 15.6222 6.66665 16C6.66665 16.3778 6.53909 16.6942 6.28398 16.9493C6.02798 17.2053 5.71109 17.3333 5.33331 17.3333H2.66665ZM26.6666 17.3333C26.2889 17.3333 25.9724 17.2053 25.7173 16.9493C25.4613 16.6942 25.3333 16.3778 25.3333 16C25.3333 15.6222 25.4613 15.3053 25.7173 15.0493C25.9724 14.7942 26.2889 14.6667 26.6666 14.6667H29.3333C29.7111 14.6667 30.0275 14.7942 30.2826 15.0493C30.5386 15.3053 30.6666 15.6222 30.6666 16C30.6666 16.3778 30.5386 16.6942 30.2826 16.9493C30.0275 17.2053 29.7111 17.3333 29.3333 17.3333H26.6666ZM16 6.66668C15.6222 6.66668 15.3058 6.53868 15.0506 6.28268C14.7946 6.02757 14.6666 5.71112 14.6666 5.33334V2.66668C14.6666 2.2889 14.7946 1.97201 15.0506 1.71601C15.3058 1.4609 15.6222 1.33334 16 1.33334C16.3778 1.33334 16.6946 1.4609 16.9506 1.71601C17.2058 1.97201 17.3333 2.2889 17.3333 2.66668V5.33334C17.3333 5.71112 17.2058 6.02757 16.9506 6.28268C16.6946 6.53868 16.3778 6.66668 16 6.66668ZM16 30.6667C15.6222 30.6667 15.3058 30.5387 15.0506 30.2827C14.7946 30.0276 14.6666 29.7111 14.6666 29.3333V26.6667C14.6666 26.2889 14.7946 25.9725 15.0506 25.7173C15.3058 25.4613 15.6222 25.3333 16 25.3333C16.3778 25.3333 16.6946 25.4613 16.9506 25.7173C17.2058 25.9725 17.3333 26.2889 17.3333 26.6667V29.3333C17.3333 29.7111 17.2058 30.0276 16.9506 30.2827C16.6946 30.5387 16.3778 30.6667 16 30.6667ZM7.53331 9.40001L6.09998 8.00001C5.83331 7.75557 5.70531 7.44446 5.71598 7.06668C5.72754 6.6889 5.85554 6.36668 6.09998 6.10001C6.36665 5.83334 6.68887 5.70001 7.06665 5.70001C7.44442 5.70001 7.75554 5.83334 7.99998 6.10001L9.39998 7.53334C9.64442 7.80001 9.76665 8.11112 9.76665 8.46668C9.76665 8.82223 9.64442 9.13334 9.39998 9.40001C9.15554 9.66668 8.8502 9.79423 8.48398 9.78268C8.11687 9.77201 7.79998 9.64445 7.53331 9.40001ZM24 25.9L22.6 24.4667C22.3555 24.2 22.2333 23.8836 22.2333 23.5173C22.2333 23.1502 22.3555 22.8445 22.6 22.6C22.8444 22.3333 23.1502 22.2058 23.5173 22.2173C23.8835 22.228 24.2 22.3556 24.4666 22.6L25.9 24C26.1666 24.2445 26.2946 24.5556 26.284 24.9333C26.2724 25.3111 26.1444 25.6333 25.9 25.9C25.6333 26.1667 25.3111 26.3 24.9333 26.3C24.5555 26.3 24.2444 26.1667 24 25.9ZM22.6 9.40001C22.3333 9.15557 22.2058 8.84979 22.2173 8.48268C22.228 8.11645 22.3555 7.80001 22.6 7.53334L24 6.10001C24.2444 5.83334 24.5555 5.70534 24.9333 5.71601C25.3111 5.72757 25.6333 5.85557 25.9 6.10001C26.1666 6.36668 26.3 6.6889 26.3 7.06668C26.3 7.44446 26.1666 7.75557 25.9 8.00001L24.4666 9.40001C24.2 9.64445 23.8889 9.76668 23.5333 9.76668C23.1778 9.76668 22.8666 9.64445 22.6 9.40001ZM6.09998 25.9C5.83331 25.6333 5.69998 25.3111 5.69998 24.9333C5.69998 24.5556 5.83331 24.2445 6.09998 24L7.53331 22.6C7.79998 22.3556 8.11687 22.2333 8.48398 22.2333C8.8502 22.2333 9.15554 22.3556 9.39998 22.6C9.66665 22.8445 9.79465 23.1502 9.78398 23.5173C9.77242 23.8836 9.64442 24.2 9.39998 24.4667L7.99998 25.9C7.75554 26.1667 7.44442 26.2942 7.06665 26.2827C6.68887 26.272 6.36665 26.1445 6.09998 25.9Z" fill="white"/>
</svg>
