<svg width="32" height="32" viewBox="0 0 32 32" fill="none" xmlns="http://www.w3.org/2000/svg">
<path d="M16 11C16 12.3261 15.4732 13.5979 14.5355 14.5355C13.5979 15.4732 12.3261 16 11 16C9.67392 16 8.40215 15.4732 7.46447 14.5355C6.52678 13.5979 6 12.3261 6 11C6 9.67392 6.52678 8.40215 7.46447 7.46447C8.40215 6.52678 9.67392 6 11 6C12.3261 6 13.5979 6.52678 14.5355 7.46447C15.4732 8.40215 16 9.67392 16 11ZM23 16C24.0609 16 25.0783 15.5786 25.8284 14.8284C26.5786 14.0783 27 13.0609 27 12C27 10.9391 26.5786 9.92172 25.8284 9.17157C25.0783 8.42143 24.0609 8 23 8C21.9391 8 20.9217 8.42143 20.1716 9.17157C19.4214 9.92172 19 10.9391 19 12C19 13.0609 19.4214 14.0783 20.1716 14.8284C20.9217 15.5786 21.9391 16 23 16ZM21 21.188V21C21.0014 19.9179 20.6504 18.8648 20 18H26.546C27.898 18 28.996 19.096 28.996 20.45C28.996 20.45 28.996 25 22.996 25C21.8 25 20.842 24.82 20.076 24.53C20.5537 23.6546 20.8573 22.6949 20.97 21.704C20.982 21.58 20.99 21.474 20.994 21.386L21 21.186V21.188ZM19 21C19 20.2044 18.6839 19.4413 18.1213 18.8787C17.5587 18.3161 16.7956 18 16 18H6C5.20435 18 4.44129 18.3161 3.87868 18.8787C3.31607 19.4413 3 20.2044 3 21V21.15C3 21.15 3 27 11 27C18.624 27 18.982 21.688 19 21.188V21Z" fill="url(#paint0_linear_21_5)"/>
<defs>
<linearGradient id="paint0_linear_21_5" x1="2.95028" y1="5.69118" x2="28.9209" y2="27.151" gradientUnits="userSpaceOnUse">
<stop stop-color="#FF6C6C"/>
<stop offset="1" stop-color="#8C8AFF"/>
</linearGradient>
</defs>
</svg>
